<svg width="27" height="27" viewBox="0 0 27 27" fill="none" xmlns="http://www.w3.org/2000/svg">
<g clip-path="url(#clip0_181_1882)">
<path d="M27.0013 11.5762H25.7188V12.8587H27.0013V11.5762Z" fill="#30303A"/>
<path d="M27.0013 3.85596H25.7188V7.72033H27.0013V3.85596Z" fill="#30303A"/>
<path d="M25.7167 10.2852H24.4258V11.5761H25.7167V10.2852Z" fill="#30303A"/>
<path d="M25.7167 7.72021H24.4258V9.00272H25.7167V7.72021Z" fill="#30303A"/>
<path d="M25.7167 2.57324H24.4258V3.85574H25.7167V2.57324Z" fill="#30303A"/>
<path d="M20.5703 12.8589V16.7148H21.8613V14.1414H25.7172V12.8589H20.5703Z" fill="#30303A"/>
<path d="M23.1458 2.57344H24.4283V1.29094H25.7192V0L21.8633 0V1.29094H23.1458V2.57344Z" fill="#30303A"/>
<path d="M24.4283 9.00293H21.8633V10.2854H24.4283V9.00293Z" fill="#30303A"/>
<path d="M23.1438 3.85596H21.8613V5.14689H20.5703V6.42939H23.1438V3.85596Z" fill="#30303A"/>
<path d="M21.8613 1.29102H20.5703V3.85602H21.8613V1.29102Z" fill="#30303A"/>
<path d="M20.5716 16.7148H19.2891V20.5708H20.5716V16.7148Z" fill="#30303A"/>
<path d="M20.5716 11.5762H19.2891V12.8587H20.5716V11.5762Z" fill="#30303A"/>
<path d="M20.5716 6.4292H19.2891V7.72014H20.5716V6.4292Z" fill="#30303A"/>
<path d="M18.0059 19.2881H14.1416V20.5706H12.8591V19.2881H9.00313V20.5706H7.72062V21.8615H6.42969V24.435H7.72062V25.7175H9.00313V27H18.0059V25.7175H19.2884V24.435H20.5709V21.8615H19.2884V20.5706H18.0059V19.2881ZM16.715 23.144H15.4325V24.435H11.5766V23.144H10.2856V21.8615H12.8591V23.144H14.1416V21.8615H16.715V23.144Z" fill="#30303A"/>
<path d="M18.0058 14.1411H16.7148V15.4321H18.0058V14.1411Z" fill="#30303A"/>
<path d="M19.2883 5.14697H16.7148V6.42947H19.2883V5.14697Z" fill="#30303A"/>
<path d="M16.7161 15.4321H15.4336V16.7146H16.7161V15.4321Z" fill="#30303A"/>
<path d="M16.7145 3.85596H10.2852V5.14689H16.7145V3.85596Z" fill="#30303A"/>
<path d="M11.5761 15.4321H10.2852V16.7146H11.5761V15.4321Z" fill="#30303A"/>
<path d="M10.2864 14.1411H9.00391V15.4321H10.2864V14.1411Z" fill="#30303A"/>
<path d="M10.2837 5.14697H7.71875V6.42947H10.2837V5.14697Z" fill="#30303A"/>
<path d="M7.72062 16.7148H6.42969V20.5708H7.72062V16.7148Z" fill="#30303A"/>
<path d="M7.72062 6.4292H6.42969V7.72014H7.72062V6.4292Z" fill="#30303A"/>
<path d="M6.4275 12.8589H1.28906V14.1414H5.145V16.7148H6.4275V12.8589Z" fill="#30303A"/>
<path d="M6.43094 1.29102H5.14844V3.85602H6.43094V1.29102Z" fill="#30303A"/>
<path d="M5.14766 9.00293H2.57422V10.2854H5.14766V9.00293Z" fill="#30303A"/>
<path d="M3.85547 6.42939H6.42891V5.14689H5.14641V3.85596H3.85547V6.42939Z" fill="#30303A"/>
<path d="M3.85406 1.29094H5.145V0L1.28906 0V1.29094H2.57156V2.57344H3.85406V1.29094Z" fill="#30303A"/>
<path d="M2.57156 10.2852H1.28906V11.5761H2.57156V10.2852Z" fill="#30303A"/>
<path d="M2.57156 7.72021H1.28906V9.00272H2.57156V7.72021Z" fill="#30303A"/>
<path d="M2.57156 2.57324H1.28906V3.85574H2.57156V2.57324Z" fill="#30303A"/>
<path d="M1.29094 11.5762H0L0 12.8587H1.29094V11.5762Z" fill="#30303A"/>
<path d="M1.29094 3.85596H0L0 7.72033H1.29094V3.85596Z" fill="#30303A"/>
</g>
<defs>
<clipPath id="clip0_181_1882">
<rect width="27" height="27" fill="white"/>
</clipPath>
</defs>
</svg>
