<svg width="33" height="32" viewBox="0 0 33 32" fill="none" xmlns="http://www.w3.org/2000/svg">
<path d="M29.0401 26.66H27.5201V29.71H29.0401V26.66Z" fill="#30303A"/>
<path d="M27.5201 9.90002H26.0001V12.95H27.5201V9.90002Z" fill="#30303A"/>
<path d="M27.5202 29.71H7.71021V31.24H27.5202V29.71Z" fill="#30303A"/>
<path d="M26.0002 12.95H24.4702V14.47H26.0002V12.95Z" fill="#30303A"/>
<path d="M26.0002 8.38H24.4702V9.9H26.0002V8.38Z" fill="#30303A"/>
<path d="M24.4702 17.52H22.9502V20.57H24.4702V17.52Z" fill="#30303A"/>
<path d="M24.4702 6.85999H22.9502V8.37999H24.4702V6.85999Z" fill="#30303A"/>
<path d="M19.9001 14.47V16H21.4201V17.52H22.9501V16H24.4701V14.47H19.9001Z" fill="#30303A"/>
<path d="M22.9502 9.90002H21.4202V11.43H22.9502V9.90002Z" fill="#30303A"/>
<path d="M22.9502 3.81006H21.4202V6.86006H22.9502V3.81006Z" fill="#30303A"/>
<path d="M21.4201 2.28003H19.9001V3.81003H21.4201V2.28003Z" fill="#30303A"/>
<path d="M19.9001 12.95H18.3801V14.47H19.9001V12.95Z" fill="#30303A"/>
<path d="M19.9001 6.85999H18.3801V8.37999H19.9001V6.85999Z" fill="#30303A"/>
<path d="M19.9001 0.76001H18.3801V2.28001H19.9001V0.76001Z" fill="#30303A"/>
<path d="M18.3801 11.4301H16.8501V12.9501H18.3801V11.4301Z" fill="#30303A"/>
<path d="M18.3801 5.32996H16.8501V6.85996H18.3801V5.32996Z" fill="#30303A"/>
<path d="M16.8502 6.85999H15.3302V8.37999H16.8502V6.85999Z" fill="#30303A"/>
<path d="M18.3802 2.28003H15.3302V3.81003H18.3802V2.28003Z" fill="#30303A"/>
<path d="M15.3302 0.76001H13.8102V2.28001H15.3302V0.76001Z" fill="#30303A"/>
<path d="M12.2802 20.57H13.8102V17.52H12.2802V16H10.7602V8.38003H12.2802V6.86003H13.8102V2.28003H10.7602V3.81003H7.71016V5.33003H6.19016V6.86003H4.66016V16H6.19016V17.52H7.71016V19.05H10.7602V22.09H12.2802V20.57ZM9.23016 16H7.71016V14.47H9.23016V16ZM9.23016 11.43H6.19016V9.90003H9.23016V11.43ZM9.23016 6.86003V5.33003H10.7602V6.86003H9.23016Z" fill="#30303A"/>
<path d="M27.5202 26.6601V25.1401H26.0002V20.5701H24.4702V25.1401H10.7602V22.0901H9.23021V25.1401H7.71021V26.6601H27.5202Z" fill="#30303A"/>
<path d="M7.71019 26.66H6.19019V29.71H7.71019V26.66Z" fill="#30303A"/>
</svg>
