<svg width="27" height="27" viewBox="0 0 27 27" fill="none" xmlns="http://www.w3.org/2000/svg">
<path d="M25.7278 12.8604H24.4453V20.5722H25.7278V12.8604Z" fill="#30303A"/>
<path d="M24.4153 20.5718H23.1328V21.8627H24.4153V20.5718Z" fill="#30303A"/>
<path d="M24.4231 11.5771H23.1406V12.8596H24.4231V11.5771Z" fill="#30303A"/>
<path d="M23.1581 14.1421H21.8672V19.289H23.1581V14.1421Z" fill="#30303A"/>
<path d="M23.1333 23.1452V21.8627H20.5598V20.5717H21.8423V19.2892H20.5598V14.1423H21.8423V12.8598H20.5598V11.5773H23.1333V10.2864H20.5598V9.00391H19.2773V23.1452H23.1333Z" fill="#30303A"/>
<path d="M19.3039 23.1445H16.7305V24.427H19.3039V23.1445Z" fill="#30303A"/>
<path d="M16.7219 24.4282H14.1484V25.7192H16.7219V24.4282Z" fill="#30303A"/>
<path d="M16.7114 3.85811V2.57561H15.4205V1.28467H14.138V2.57561H12.8555V3.85811H16.7114Z" fill="#30303A"/>
<path d="M14.1223 17.9995H12.8398V19.2905H14.1223V17.9995Z" fill="#30303A"/>
<path d="M14.1458 15.4321H12.8633V16.7146H14.1458V15.4321Z" fill="#30303A"/>
<path d="M14.1364 25.7178H7.70703V27.0003H14.1364V25.7178Z" fill="#30303A"/>
<path d="M12.8559 19.2905H9V20.573H12.8559V19.2905Z" fill="#30303A"/>
<path d="M9.00703 10.2863H6.43359V11.5772H15.428V10.2863H18.0014V9.00381H19.2924V7.71287H18.0014V3.85693H16.7189V5.14787H12.863V3.85693H11.572V6.43037H9.00703V10.2863ZM15.428 6.43037H16.7189V9.00381H15.428V6.43037ZM12.863 6.43037H14.1455V10.2863H12.863V6.43037Z" fill="#30303A"/>
<path d="M9.00578 17.9985H7.71484V19.2895H9.00578V17.9985Z" fill="#30303A"/>
<path d="M8.99797 15.4326H7.70703V16.7151H8.99797V15.4326Z" fill="#30303A"/>
<path d="M9.0175 3.85693H7.72656V6.43037H9.0175V3.85693Z" fill="#30303A"/>
<path d="M7.70234 24.4287H5.12891V25.7196H7.70234V24.4287Z" fill="#30303A"/>
<path d="M7.7075 9.00383V7.71289H5.13406V9.00383H3.85156V10.2863H6.425V9.00383H7.7075Z" fill="#30303A"/>
<path d="M7.68875 1.28564H6.40625V3.85908H7.68875V1.28564Z" fill="#30303A"/>
<path d="M6.44844 0.000488281L3.875 0.000488281V1.28299H6.44844V0.000488281Z" fill="#30303A"/>
<path d="M5.15094 23.1445H2.58594V24.427H5.15094V23.1445Z" fill="#30303A"/>
<path d="M3.87234 1.28369H2.58984V2.57463H3.87234V1.28369Z" fill="#30303A"/>
<path d="M2.56047 9.00682H3.84297V6.43338H5.12547V5.15088H2.56047V7.71588H1.26953L1.26953 23.1481H2.56047L2.56047 9.00682Z" fill="#30303A"/>
<path d="M2.58781 2.57324H1.29688V5.14668H2.58781V2.57324Z" fill="#30303A"/>
</svg>
