<svg width="33" height="32" viewBox="0 0 33 32" fill="none" xmlns="http://www.w3.org/2000/svg">
<path d="M29.8001 27.4301H28.2701V28.9501H29.8001V27.4301Z" fill="#DCDCF2"/>
<path d="M29.8001 3.05005H28.2701V4.57005H29.8001V3.05005Z" fill="#DCDCF2"/>
<path d="M28.2701 25.9H26.7501V27.43H28.2701V25.9Z" fill="#DCDCF2"/>
<path d="M28.2701 4.57007H26.7501V6.09007H28.2701V4.57007Z" fill="#DCDCF2"/>
<path d="M26.7501 24.38H25.2301V25.9H26.7501V24.38Z" fill="#DCDCF2"/>
<path d="M26.7501 6.09009H25.2301V7.62009H26.7501V6.09009Z" fill="#DCDCF2"/>
<path d="M25.2302 22.8601H23.7002V24.3801H25.2302V22.8601Z" fill="#DCDCF2"/>
<path d="M25.2302 7.62H23.7002V9.14H25.2302V7.62Z" fill="#DCDCF2"/>
<path d="M23.7002 21.3301H22.1802V22.8601H23.7002V21.3301Z" fill="#DCDCF2"/>
<path d="M23.7002 9.14001H22.1802V10.67H23.7002V9.14001Z" fill="#DCDCF2"/>
<path d="M22.1801 19.8101H20.6501V21.3301H22.1801V19.8101Z" fill="#DCDCF2"/>
<path d="M22.1801 10.67H20.6501V12.19H22.1801V10.67Z" fill="#DCDCF2"/>
<path d="M20.6501 18.29H19.1301V19.81H20.6501V18.29Z" fill="#DCDCF2"/>
<path d="M20.6501 12.1901H19.1301V13.7101H20.6501V12.1901Z" fill="#DCDCF2"/>
<path d="M19.1301 16.76H17.6101V18.29H19.1301V16.76Z" fill="#DCDCF2"/>
<path d="M19.1301 13.7101H17.6101V15.2401H19.1301V13.7101Z" fill="#DCDCF2"/>
<path d="M17.6101 15.24H16.0801V16.76H17.6101V15.24Z" fill="#DCDCF2"/>
<path d="M16.0802 16.76H14.5602V18.29H16.0802V16.76Z" fill="#DCDCF2"/>
<path d="M16.0802 13.7101H14.5602V15.2401H16.0802V13.7101Z" fill="#DCDCF2"/>
<path d="M14.5602 18.29H13.0402V19.81H14.5602V18.29Z" fill="#DCDCF2"/>
<path d="M14.5602 12.1901H13.0402V13.7101H14.5602V12.1901Z" fill="#DCDCF2"/>
<path d="M13.0401 19.8101H11.5101V21.3301H13.0401V19.8101Z" fill="#DCDCF2"/>
<path d="M13.0401 10.67H11.5101V12.19H13.0401V10.67Z" fill="#DCDCF2"/>
<path d="M11.5101 21.3301H9.99011V22.8601H11.5101V21.3301Z" fill="#DCDCF2"/>
<path d="M11.5101 9.14001H9.99011V10.67H11.5101V9.14001Z" fill="#DCDCF2"/>
<path d="M9.99008 22.8601H8.46008V24.3801H9.99008V22.8601Z" fill="#DCDCF2"/>
<path d="M9.99008 7.62H8.46008V9.14H9.99008V7.62Z" fill="#DCDCF2"/>
<path d="M8.46019 24.38H6.94019V25.9H8.46019V24.38Z" fill="#DCDCF2"/>
<path d="M8.46019 6.09009H6.94019V7.62009H8.46019V6.09009Z" fill="#DCDCF2"/>
<path d="M6.94017 25.9H5.42017V27.43H6.94017V25.9Z" fill="#DCDCF2"/>
<path d="M6.94017 4.57007H5.42017V6.09007H6.94017V4.57007Z" fill="#DCDCF2"/>
<path d="M5.42014 27.4301H3.89014V28.9501H5.42014V27.4301Z" fill="#DCDCF2"/>
<path d="M5.42014 3.05005H3.89014V4.57005H5.42014V3.05005Z" fill="#DCDCF2"/>
<path d="M29.8001 28.4301H28.2701V29.9501H29.8001V28.4301Z" fill="#DCDCF2"/>
<path d="M29.8001 4.05005H28.2701V5.57005H29.8001V4.05005Z" fill="#DCDCF2"/>
<path d="M28.2701 26.9H26.7501V28.43H28.2701V26.9Z" fill="#DCDCF2"/>
<path d="M28.2701 5.57007H26.7501V7.09007H28.2701V5.57007Z" fill="#DCDCF2"/>
<path d="M26.7501 25.38H25.2301V26.9H26.7501V25.38Z" fill="#DCDCF2"/>
<path d="M26.7501 7.09009H25.2301V8.62009H26.7501V7.09009Z" fill="#DCDCF2"/>
<path d="M25.2302 23.8601H23.7002V25.3801H25.2302V23.8601Z" fill="#DCDCF2"/>
<path d="M25.2302 8.62H23.7002V10.14H25.2302V8.62Z" fill="#DCDCF2"/>
<path d="M23.7002 22.3301H22.1802V23.8601H23.7002V22.3301Z" fill="#DCDCF2"/>
<path d="M23.7002 10.14H22.1802V11.67H23.7002V10.14Z" fill="#DCDCF2"/>
<path d="M22.1801 20.8101H20.6501V22.3301H22.1801V20.8101Z" fill="#DCDCF2"/>
<path d="M22.1801 11.67H20.6501V13.19H22.1801V11.67Z" fill="#DCDCF2"/>
<path d="M20.6501 19.29H19.1301V20.81H20.6501V19.29Z" fill="#DCDCF2"/>
<path d="M20.6501 13.1901H19.1301V14.7101H20.6501V13.1901Z" fill="#DCDCF2"/>
<path d="M19.1301 17.76H17.6101V19.29H19.1301V17.76Z" fill="#DCDCF2"/>
<path d="M19.1301 14.7101H17.6101V16.2401H19.1301V14.7101Z" fill="#DCDCF2"/>
<path d="M17.6101 16.24H16.0801V17.76H17.6101V16.24Z" fill="#DCDCF2"/>
<path d="M16.0802 17.76H14.5602V19.29H16.0802V17.76Z" fill="#DCDCF2"/>
<path d="M16.0802 14.7101H14.5602V16.2401H16.0802V14.7101Z" fill="#DCDCF2"/>
<path d="M14.5602 19.29H13.0402V20.81H14.5602V19.29Z" fill="#DCDCF2"/>
<path d="M14.5602 13.1901H13.0402V14.7101H14.5602V13.1901Z" fill="#DCDCF2"/>
<path d="M13.0401 20.8101H11.5101V22.3301H13.0401V20.8101Z" fill="#DCDCF2"/>
<path d="M13.0401 11.67H11.5101V13.19H13.0401V11.67Z" fill="#DCDCF2"/>
<path d="M11.5101 22.3301H9.99011V23.8601H11.5101V22.3301Z" fill="#DCDCF2"/>
<path d="M11.5101 10.14H9.99011V11.67H11.5101V10.14Z" fill="#DCDCF2"/>
<path d="M9.99008 23.8601H8.46008V25.3801H9.99008V23.8601Z" fill="#DCDCF2"/>
<path d="M9.99008 8.62H8.46008V10.14H9.99008V8.62Z" fill="#DCDCF2"/>
<path d="M8.46019 25.38H6.94019V26.9H8.46019V25.38Z" fill="#DCDCF2"/>
<path d="M8.46019 7.09009H6.94019V8.62009H8.46019V7.09009Z" fill="#DCDCF2"/>
<path d="M6.94017 26.9H5.42017V28.43H6.94017V26.9Z" fill="#DCDCF2"/>
<path d="M6.94017 5.57007H5.42017V7.09007H6.94017V5.57007Z" fill="#DCDCF2"/>
<path d="M5.42014 28.4301H3.89014V29.9501H5.42014V28.4301Z" fill="#DCDCF2"/>
<path d="M5.42014 4.05005H3.89014V5.57005H5.42014V4.05005Z" fill="#DCDCF2"/>
<path d="M29.8001 26.4301H28.2701V27.9501H29.8001V26.4301Z" fill="#DCDCF2"/>
<path d="M29.8001 2.05005H28.2701V3.57005H29.8001V2.05005Z" fill="#DCDCF2"/>
<path d="M28.2701 24.9H26.7501V26.43H28.2701V24.9Z" fill="#DCDCF2"/>
<path d="M28.2701 3.57007H26.7501V5.09007H28.2701V3.57007Z" fill="#DCDCF2"/>
<path d="M26.7501 23.38H25.2301V24.9H26.7501V23.38Z" fill="#DCDCF2"/>
<path d="M26.7501 5.09009H25.2301V6.62009H26.7501V5.09009Z" fill="#DCDCF2"/>
<path d="M25.2302 21.8601H23.7002V23.3801H25.2302V21.8601Z" fill="#DCDCF2"/>
<path d="M25.2302 6.62H23.7002V8.14H25.2302V6.62Z" fill="#DCDCF2"/>
<path d="M23.7002 20.3301H22.1802V21.8601H23.7002V20.3301Z" fill="#DCDCF2"/>
<path d="M23.7002 8.14001H22.1802V9.67001H23.7002V8.14001Z" fill="#DCDCF2"/>
<path d="M22.1801 18.8101H20.6501V20.3301H22.1801V18.8101Z" fill="#DCDCF2"/>
<path d="M22.1801 9.67004H20.6501V11.19H22.1801V9.67004Z" fill="#DCDCF2"/>
<path d="M20.6501 17.29H19.1301V18.81H20.6501V17.29Z" fill="#DCDCF2"/>
<path d="M20.6501 11.1901H19.1301V12.7101H20.6501V11.1901Z" fill="#DCDCF2"/>
<path d="M19.1301 15.76H17.6101V17.29H19.1301V15.76Z" fill="#DCDCF2"/>
<path d="M19.1301 12.7101H17.6101V14.2401H19.1301V12.7101Z" fill="#DCDCF2"/>
<path d="M17.6101 14.24H16.0801V15.76H17.6101V14.24Z" fill="#DCDCF2"/>
<path d="M16.0802 15.76H14.5602V17.29H16.0802V15.76Z" fill="#DCDCF2"/>
<path d="M16.0802 12.7101H14.5602V14.2401H16.0802V12.7101Z" fill="#DCDCF2"/>
<path d="M14.5602 17.29H13.0402V18.81H14.5602V17.29Z" fill="#DCDCF2"/>
<path d="M14.5602 11.1901H13.0402V12.7101H14.5602V11.1901Z" fill="#DCDCF2"/>
<path d="M13.0401 18.8101H11.5101V20.3301H13.0401V18.8101Z" fill="#DCDCF2"/>
<path d="M13.0401 9.67004H11.5101V11.19H13.0401V9.67004Z" fill="#DCDCF2"/>
<path d="M11.5101 20.3301H9.99011V21.8601H11.5101V20.3301Z" fill="#DCDCF2"/>
<path d="M11.5101 8.14001H9.99011V9.67001H11.5101V8.14001Z" fill="#DCDCF2"/>
<path d="M9.99008 21.8601H8.46008V23.3801H9.99008V21.8601Z" fill="#DCDCF2"/>
<path d="M9.99008 6.62H8.46008V8.14H9.99008V6.62Z" fill="#DCDCF2"/>
<path d="M8.46019 23.38H6.94019V24.9H8.46019V23.38Z" fill="#DCDCF2"/>
<path d="M8.46019 5.09009H6.94019V6.62009H8.46019V5.09009Z" fill="#DCDCF2"/>
<path d="M6.94017 24.9H5.42017V26.43H6.94017V24.9Z" fill="#DCDCF2"/>
<path d="M6.94017 3.57007H5.42017V5.09007H6.94017V3.57007Z" fill="#DCDCF2"/>
<path d="M5.42014 26.4301H3.89014V27.9501H5.42014V26.4301Z" fill="#DCDCF2"/>
<path d="M5.42014 2.05005H3.89014V3.57005H5.42014V2.05005Z" fill="#DCDCF2"/>
</svg>
