<svg width="32" height="32" viewBox="0 0 32 32" fill="none" xmlns="http://www.w3.org/2000/svg">
<path d="M30.4751 15.2402H28.9551V24.3802H30.4751V15.2402Z" fill="#EA6969"/>
<path d="M28.9555 24.3809H27.4355V25.9109H28.9555V24.3809Z" fill="#EA6969"/>
<path d="M28.9555 13.7207H27.4355V15.2407H28.9555V13.7207Z" fill="#EA6969"/>
<path d="M27.4353 16.7598H25.9053V22.8598H27.4353V16.7598Z" fill="#EA6969"/>
<path d="M27.4352 27.4299V25.9099H24.3852V24.3799H25.9052V22.8599H24.3852V16.7599H25.9052V15.2399H24.3852V13.7199H27.4352V12.1899H24.3852V10.6699H22.8652V27.4299H27.4352Z" fill="#EA6969"/>
<path d="M22.8654 27.4297H19.8154V28.9497H22.8654V27.4297Z" fill="#EA6969"/>
<path d="M19.8156 28.9492H16.7656V30.4792H19.8156V28.9492Z" fill="#EA6969"/>
<path d="M19.8151 4.56953V3.04953H18.2851V1.51953H16.7651V3.04953H15.2451V4.56953H19.8151Z" fill="#EA6969"/>
<path d="M16.7651 21.3301H15.2451V22.8601H16.7651V21.3301Z" fill="#EA6969"/>
<path d="M16.7651 18.2891H15.2451V19.8091H16.7651V18.2891Z" fill="#EA6969"/>
<path d="M16.7655 30.4805H9.14551V32.0005H16.7655V30.4805Z" fill="#EA6969"/>
<path d="M15.2458 22.8594H10.6758V24.3794H15.2458V22.8594Z" fill="#EA6969"/>
<path d="M10.675 12.1903H7.625V13.7203H18.285V12.1903H21.335V10.6703H22.865V9.14031H21.335V4.57031H19.815V6.10031H15.245V4.57031H13.715V7.62031H10.675V12.1903ZM18.285 7.62031H19.815V10.6703H18.285V7.62031ZM15.245 7.62031H16.765V12.1903H15.245V7.62031Z" fill="#EA6969"/>
<path d="M10.6755 21.3301H9.14551V22.8601H10.6755V21.3301Z" fill="#EA6969"/>
<path d="M10.6755 18.2891H9.14551V19.8091H10.6755V18.2891Z" fill="#EA6969"/>
<path d="M10.6755 4.57031H9.14551V7.62031H10.6755V4.57031Z" fill="#EA6969"/>
<path d="M9.1457 28.9492H6.0957V30.4792H9.1457V28.9492Z" fill="#EA6969"/>
<path d="M9.1452 10.6706V9.14062H6.0952V10.6706H4.5752V12.1906H7.6252V10.6706H9.1452Z" fill="#EA6969"/>
<path d="M9.145 1.51953H7.625V4.56953H9.145V1.51953Z" fill="#EA6969"/>
<path d="M7.6252 0H4.5752V1.52H7.6252V0Z" fill="#EA6969"/>
<path d="M6.09566 27.4297H3.05566V28.9497H6.09566V27.4297Z" fill="#EA6969"/>
<path d="M4.57566 1.51953H3.05566V3.04953H4.57566V1.51953Z" fill="#EA6969"/>
<path d="M3.05539 10.6696H4.57539V7.61961H6.09539V6.09961H3.05539V9.13961H1.52539V27.4296H3.05539V10.6696Z" fill="#EA6969"/>
<path d="M3.05539 3.05078H1.52539V6.10078H3.05539V3.05078Z" fill="#EA6969"/>
</svg>
