<svg width="27" height="27" viewBox="0 0 27 27" fill="none" xmlns="http://www.w3.org/2000/svg">
<g clip-path="url(#clip0_181_1854)">
<path d="M25.7174 18.6385H12.8586V17.356H11.5761V23.7853H10.2852V26.3588H25.7174V25.0678H26.9999V17.356H25.7174V18.6385ZM15.432 23.7853H14.1411V19.9294H15.432V23.7853ZM19.288 22.5028H18.0055V19.9294H19.288V22.5028ZM21.8614 22.5028H20.5705V19.9294H21.8614V22.5028ZM24.4264 23.7853H23.1439V19.9294H24.4264V23.7853Z" fill="#30303A"/>
<path d="M25.718 16.0732H23.1445V17.3557H25.718V16.0732Z" fill="#30303A"/>
<path d="M23.1458 14.7822H21.8633V16.0732H23.1458V14.7822Z" fill="#30303A"/>
<path d="M23.1458 5.78809H21.8633V9.64402H23.1458V5.78809Z" fill="#30303A"/>
<path d="M21.8613 9.64404H20.5703V14.7825H21.8613V9.64404Z" fill="#30303A"/>
<path d="M20.5689 7.07031H18.0039V9.64375H20.5689V7.07031Z" fill="#30303A"/>
<path d="M18.0058 9.64404H16.7148V14.7825H18.0058V9.64404Z" fill="#30303A"/>
<path d="M21.8617 5.78779V4.49685H18.0058V3.21436H16.7148V5.78779H21.8617Z" fill="#30303A"/>
<path d="M16.7161 14.7822H15.4336V16.0732H16.7161V14.7822Z" fill="#30303A"/>
<path d="M16.7141 5.78809H15.4316V8.35308H14.1406V9.64402H16.7141V5.78809Z" fill="#30303A"/>
<path d="M15.4328 16.0732H12.8594V17.3557H15.4328V16.0732Z" fill="#30303A"/>
<path d="M12.8595 4.49686V3.21436H5.14766V4.49686H2.57422V5.78779H3.85672V7.07029H5.14766V8.35279H12.8595V7.07029H14.142V5.78779H15.433V4.49686H12.8595Z" fill="#30303A"/>
<path d="M16.7141 1.93213H14.1406V3.21463H16.7141V1.93213Z" fill="#30303A"/>
<path d="M3.85547 9.64404V10.9265H11.5758V12.2175H12.8583V10.9265H14.1408V9.64404H3.85547Z" fill="#30303A"/>
<path d="M11.5773 12.2173H9.00391V13.4998H11.5773V12.2173Z" fill="#30303A"/>
<path d="M9.00313 13.5H6.42969V14.7825H9.00313V13.5Z" fill="#30303A"/>
<path d="M14.1408 0.641113H3.85547V1.93205H14.1408V0.641113Z" fill="#30303A"/>
<path d="M10.2848 21.2119H3.85547V22.5029H10.2848V21.2119Z" fill="#30303A"/>
<path d="M6.43016 14.7822H2.57422V16.0732H6.43016V14.7822Z" fill="#30303A"/>
<path d="M3.85672 19.9292H2.57422V21.2117H3.85672V19.9292Z" fill="#30303A"/>
<path d="M3.85672 8.35303H2.57422V9.64397H3.85672V8.35303Z" fill="#30303A"/>
<path d="M3.85406 1.93213H1.28906V3.21463H3.85406V1.93213Z" fill="#30303A"/>
<path d="M2.57156 18.6382H1.28906V19.9291H2.57156V18.6382Z" fill="#30303A"/>
<path d="M1.29094 13.4997V8.35279H2.57344V7.07029H1.29094V3.21436H0V18.6381H1.29094V14.7822H2.57344V13.4997H1.29094Z" fill="#30303A"/>
</g>
<defs>
<clipPath id="clip0_181_1854">
<rect width="27" height="27" fill="white"/>
</clipPath>
</defs>
</svg>
