<svg width="32" height="32" viewBox="0 0 32 32" fill="none" xmlns="http://www.w3.org/2000/svg">
<g clip-path="url(#clip0_211_724)">
<path d="M31.2427 25.1494H29.7227V26.6694H31.2427V25.1494Z" fill="#30303A"/>
<path d="M29.7214 23.6201H28.1914V25.1501H29.7214V23.6201Z" fill="#30303A"/>
<path d="M29.7214 12.96H28.1914V16H29.7214V12.96Z" fill="#30303A"/>
<path d="M29.7223 26.6699H25.1523V28.1899H29.7223V26.6699Z" fill="#30303A"/>
<path d="M28.1919 22.0996H26.6719V23.6196H28.1919V22.0996Z" fill="#30303A"/>
<path d="M26.67 14.48H25.15V12.96H23.62V14.48H22.1V16H20.57V17.53H19.05V19.05H17.53V20.57H16V22.1H17.53V23.62H19.05V25.15H20.57V23.62H22.1V22.1H23.62V20.57H25.15V19.05H26.67V17.53H28.19V16H26.67V14.48Z" fill="#30303A"/>
<path d="M28.1923 11.4297H25.1523V12.9597H28.1923V11.4297Z" fill="#30303A"/>
<path d="M25.1516 28.1895H22.1016V29.7195H25.1516V28.1895Z" fill="#30303A"/>
<path d="M22.1003 11.4297H20.5703V12.9597H22.1003V11.4297Z" fill="#30303A"/>
<path d="M22.1003 5.33984H20.5703V6.85984H22.1003V5.33984Z" fill="#30303A"/>
<path d="M22.0998 29.7197H5.33984V31.2397H22.0998V29.7197Z" fill="#30303A"/>
<path d="M20.5708 9.91016H19.0508V11.4302H20.5708V9.91016Z" fill="#30303A"/>
<path d="M20.5708 6.85938H19.0508V8.37937H20.5708V6.85938Z" fill="#30303A"/>
<path d="M16.0005 22.0996H14.4805V26.6696H19.0505V25.1496H16.0005V22.0996Z" fill="#30303A"/>
<path d="M17.5305 16V14.48H19.0505V12.96H14.4805V14.48H16.0005V16H17.5305Z" fill="#30303A"/>
<path d="M17.53 5.33984H16V6.85984H17.53V5.33984Z" fill="#30303A"/>
<path d="M11.4302 20.5698V19.0498H9.91016V22.0998H14.4802V20.5698H11.4302Z" fill="#30303A"/>
<path d="M14.4809 17.5293H12.9609V19.0493H14.4809V17.5293Z" fill="#30303A"/>
<path d="M12.9602 25.1494H9.91016V26.6694H12.9602V25.1494Z" fill="#30303A"/>
<path d="M11.4328 16V14.48H12.9628V12.96H8.38281V14.48H9.91281V16H11.4328Z" fill="#30303A"/>
<path d="M19.0528 9.90957V8.37957H16.0028V6.85957H14.4828V8.37957H12.9628V3.80957H11.4328V8.37957H9.91281V6.85957H8.38281V9.90957H19.0528Z" fill="#30303A"/>
<path d="M9.91328 23.6201H6.86328V25.1501H9.91328V23.6201Z" fill="#30303A"/>
<path d="M8.38328 9.91016H6.86328V11.4302H8.38328V9.91016Z" fill="#30303A"/>
<path d="M8.38328 5.33984H6.86328V6.85984H8.38328V5.33984Z" fill="#30303A"/>
<path d="M6.85984 11.4297H5.33984V23.6197H6.85984V11.4297Z" fill="#30303A"/>
<path d="M6.85984 8.37988H5.33984V9.90988H6.85984V8.37988Z" fill="#30303A"/>
<path d="M5.3425 25.1494H3.8125V29.7194H5.3425V25.1494Z" fill="#30303A"/>
<path d="M5.3425 6.85938H3.8125V8.37937H5.3425V6.85938Z" fill="#30303A"/>
<path d="M3.81297 19.0498H2.29297V25.1498H3.81297V19.0498Z" fill="#30303A"/>
<path d="M2.29172 2.28977H23.6217V9.90977H25.1517V0.759766H0.761719V19.0498H2.29172V2.28977Z" fill="#30303A"/>
</g>
<defs>
<clipPath id="clip0_211_724">
<rect width="32" height="32" fill="white"/>
</clipPath>
</defs>
</svg>
