<svg width="27" height="27" viewBox="0 0 27 27" fill="none" xmlns="http://www.w3.org/2000/svg">
<g clip-path="url(#clip0_181_1822)">
<path d="M25.7192 10.2854V9.00291H24.4283V7.71197H23.1458V5.14697H21.8633V15.4323H23.1458V14.1413H24.4283V12.8588H25.7192V24.4267H27.0017V10.2854H25.7192Z" fill="#30303A"/>
<path d="M25.7167 24.4268H24.4258V25.7177H25.7167V24.4268Z" fill="#30303A"/>
<path d="M24.4273 25.7173H2.57422V26.9998H24.4273V25.7173Z" fill="#30303A"/>
<path d="M21.8613 15.4321H20.5703V16.7146H21.8613V15.4321Z" fill="#30303A"/>
<path d="M20.5716 21.8613H19.2891V23.1438H20.5716V21.8613Z" fill="#30303A"/>
<path d="M20.5716 16.7148H19.2891V17.9973H20.5716V16.7148Z" fill="#30303A"/>
<path d="M19.287 20.5708H17.9961V21.8617H19.287V20.5708Z" fill="#30303A"/>
<path d="M19.287 17.9971H17.9961V19.288H19.287V17.9971Z" fill="#30303A"/>
<path d="M19.287 9.00293H17.9961V12.8589H19.287V9.00293Z" fill="#30303A"/>
<path d="M17.9973 7.71191H16.7148V9.00285H17.9973V7.71191Z" fill="#30303A"/>
<path d="M17.9983 19.2881H9.00391V20.5706H17.9983V19.2881Z" fill="#30303A"/>
<path d="M17.9986 12.8589H15.4336V14.1414H17.9986V12.8589Z" fill="#30303A"/>
<path d="M15.4341 9.00293H11.5781V10.2854H14.1431V12.8589H15.4341V9.00293Z" fill="#30303A"/>
<path d="M14.1431 12.8589H11.5781V14.1414H14.1431V12.8589Z" fill="#30303A"/>
<path d="M16.7145 6.4292H10.2852V7.7117H16.7145V6.4292Z" fill="#30303A"/>
<path d="M16.7145 15.4321H10.2852V16.7146H16.7145V15.4321Z" fill="#30303A"/>
<path d="M11.5761 10.2852H10.2852V12.8586H11.5761V10.2852Z" fill="#30303A"/>
<path d="M10.2864 14.1411H9.00391V15.4321H10.2864V14.1411Z" fill="#30303A"/>
<path d="M10.2864 7.71191H9.00391V9.00285H10.2864V7.71191Z" fill="#30303A"/>
<path d="M9.00187 20.5708H7.71094V21.8617H9.00187V20.5708Z" fill="#30303A"/>
<path d="M9.00187 17.9971H7.71094V19.288H9.00187V17.9971Z" fill="#30303A"/>
<path d="M9.00187 9.00293H7.71094V14.1414H9.00187V9.00293Z" fill="#30303A"/>
<path d="M7.71219 21.8613H6.42969V23.1438H7.71219V21.8613Z" fill="#30303A"/>
<path d="M7.71219 16.7148H6.42969V17.9973H7.71219V16.7148Z" fill="#30303A"/>
<path d="M21.8631 5.14687V3.85594H19.2897V2.57344H17.9987V1.2825H16.7162V0L10.2869 0V1.2825H9.00437V2.57344H7.71344V3.85594H5.14844V5.14687H21.8631Z" fill="#30303A"/>
<path d="M6.43094 15.4321H5.14844V16.7146H6.43094V15.4321Z" fill="#30303A"/>
<path d="M2.57219 24.4268H1.28125V25.7177H2.57219V24.4268Z" fill="#30303A"/>
<path d="M1.2825 12.8588H2.57344V14.1413H3.85594V15.4323H5.14687V5.14697H3.85594V7.71197H2.57344V9.00291H1.2825V10.2854H0L0 24.4267H1.2825L1.2825 12.8588Z" fill="#30303A"/>
</g>
<defs>
<clipPath id="clip0_181_1822">
<rect width="27" height="27" fill="white"/>
</clipPath>
</defs>
</svg>
