<svg width="32" height="32" viewBox="0 0 32 32" fill="none" xmlns="http://www.w3.org/2000/svg">
<g clip-path="url(#clip0_177_1680)">
<path d="M32.0005 25.9102H30.4805V30.4802H32.0005V25.9102Z" fill="#30303A"/>
<path d="M32.0005 13.7202H30.4805V18.2902H32.0005V13.7202Z" fill="#30303A"/>
<path d="M32.0005 1.52979H30.4805V6.09978H32.0005V1.52979Z" fill="#30303A"/>
<path d="M30.4792 18.29H28.9492V19.81H30.4792V18.29Z" fill="#30303A"/>
<path d="M30.4792 12.1899H28.9492V13.7199H30.4792V12.1899Z" fill="#30303A"/>
<path d="M30.4802 0H25.9102V1.53H30.4802V0Z" fill="#30303A"/>
<path d="M30.4802 30.48H25.9102V32H30.4802V30.48Z" fill="#30303A"/>
<path d="M28.9497 19.8101H27.4297V21.3401H28.9497V19.8101Z" fill="#30303A"/>
<path d="M28.9497 10.6699H27.4297V12.1899H28.9497V10.6699Z" fill="#30303A"/>
<path d="M27.4289 21.3398H24.3789V22.8598H27.4289V21.3398Z" fill="#30303A"/>
<path d="M27.4289 9.1499H24.3789V10.6699H27.4289V9.1499Z" fill="#30303A"/>
<path d="M24.3798 22.8599H21.3398V24.3799H24.3798V22.8599Z" fill="#30303A"/>
<path d="M24.3798 7.62012H21.3398V9.15012H24.3798V7.62012Z" fill="#30303A"/>
<path d="M21.3384 12.1899H19.8084V10.6699H18.2884V9.1499H13.7184V10.6699H12.1884V12.1899H10.6684V13.7199H9.14844V18.2899H10.6684V19.8099H12.1884V21.3399H13.7184V22.8599H18.2884V21.3399H19.8084V19.8099H21.3384V18.2899H22.8584V13.7199H21.3384V12.1899ZM18.2884 16.7699H16.7584V18.2899H15.2384V16.7699H13.7184V15.2399H15.2384V13.7199H16.7584V15.2399H18.2884V16.7699Z" fill="#30303A"/>
<path d="M21.3419 24.3799H10.6719V25.9099H21.3419V24.3799Z" fill="#30303A"/>
<path d="M21.3419 6.1001H10.6719V7.6201H21.3419V6.1001Z" fill="#30303A"/>
<path d="M10.6711 22.8599H7.62109V24.3799H10.6711V22.8599Z" fill="#30303A"/>
<path d="M10.6711 7.62012H7.62109V9.15012H10.6711V7.62012Z" fill="#30303A"/>
<path d="M7.62031 21.3398H4.57031V22.8598H7.62031V21.3398Z" fill="#30303A"/>
<path d="M7.62031 9.1499H4.57031V10.6699H7.62031V9.1499Z" fill="#30303A"/>
<path d="M6.10125 30.48H1.53125V32H6.10125V30.48Z" fill="#30303A"/>
<path d="M4.57078 19.8101H3.05078V21.3401H4.57078V19.8101Z" fill="#30303A"/>
<path d="M4.57078 10.6699H3.05078V12.1899H4.57078V10.6699Z" fill="#30303A"/>
<path d="M6.10125 0H1.53125V1.53H6.10125V0Z" fill="#30303A"/>
<path d="M3.05125 18.29H1.53125V19.81H3.05125V18.29Z" fill="#30303A"/>
<path d="M3.05125 12.1899H1.53125V13.7199H3.05125V12.1899Z" fill="#30303A"/>
<path d="M1.53 25.9102H0V30.4802H1.53V25.9102Z" fill="#30303A"/>
<path d="M1.53 13.7202H0V18.2902H1.53V13.7202Z" fill="#30303A"/>
<path d="M1.53 1.52979H0V6.09978H1.53V1.52979Z" fill="#30303A"/>
</g>
<defs>
<clipPath id="clip0_177_1680">
<rect width="32" height="32" fill="white"/>
</clipPath>
</defs>
</svg>
