<svg width="20" height="21" viewBox="0 0 20 21" fill="none" xmlns="http://www.w3.org/2000/svg">
<path d="M13.6875 5.21875L8.6875 10.2188C8.3125 10.625 7.65625 10.625 7.28125 10.2188L4.78125 7.71875C4.375 7.34375 4.375 6.6875 4.78125 6.3125C5.15625 5.90625 5.8125 5.90625 6.1875 6.3125L8 8.09375L12.2812 3.8125C12.6562 3.40625 13.3125 3.40625 13.6875 3.8125C14.0938 4.1875 14.0938 4.84375 13.6875 5.21875ZM16.6875 9.21875L8.6875 17.2188C8.3125 17.625 7.65625 17.625 7.28125 17.2188L3.28125 13.2188C2.875 12.8438 2.875 12.1875 3.28125 11.8125C3.65625 11.4062 4.3125 11.4062 4.6875 11.8125L8 15.0938L15.2812 7.8125C15.6562 7.40625 16.3125 7.40625 16.6875 7.8125C17.0938 8.1875 17.0938 8.84375 16.6875 9.21875Z" fill="black"/>
</svg>
