<svg width="33" height="32" viewBox="0 0 33 32" fill="none" xmlns="http://www.w3.org/2000/svg">
<path d="M29.6992 20.2827H27.5624V24.5724H29.6992V20.2827Z" fill="#30303A"/>
<path d="M27.5624 13.8552H29.6992V20.2827H31.8501V11.7173H29.6992V7.42761H27.5624V13.8552Z" fill="#30303A"/>
<path d="M27.5623 24.5724H25.4114V26.7243H27.5623V24.5724Z" fill="#30303A"/>
<path d="M27.5623 13.8552H25.4114V16.0071H27.5623V13.8552Z" fill="#30303A"/>
<path d="M27.5623 5.28973H25.4114V7.42757H27.5623V5.28973Z" fill="#30303A"/>
<path d="M25.4114 20.2827H23.2745V24.5724H25.4114V20.2827Z" fill="#30303A"/>
<path d="M25.4114 11.7173H23.2745V13.8551H25.4114V11.7173Z" fill="#30303A"/>
<path d="M25.4112 26.7242H21.1376V28.8621H25.4112V26.7242Z" fill="#30303A"/>
<path d="M23.2744 18.1448H21.1376V20.2827H23.2744V18.1448Z" fill="#30303A"/>
<path d="M23.2744 9.57947H21.1376V11.7173H23.2744V9.57947Z" fill="#30303A"/>
<path d="M25.4112 3.13788H21.1376V5.28978H25.4112V3.13788Z" fill="#30303A"/>
<path d="M21.1378 16.007H16.8501V18.1449H21.1378V16.007Z" fill="#30303A"/>
<path d="M21.1377 5.28973H18.9868V9.57946H21.1377V5.28973Z" fill="#30303A"/>
<path d="M16.8501 24.5724H14.7133V28.8621H12.5624V31H21.1378V28.8621H16.8501V24.5724Z" fill="#30303A"/>
<path d="M18.9869 20.2827H16.8501V24.5724H18.9869V20.2827Z" fill="#30303A"/>
<path d="M16.8501 18.1448H14.7133V20.2827H16.8501V18.1448Z" fill="#30303A"/>
<path d="M14.7133 9.57947H12.5624V13.8551H14.7133V9.57947Z" fill="#30303A"/>
<path d="M12.5622 26.7242H8.27454V28.8621H12.5622V26.7242Z" fill="#30303A"/>
<path d="M12.5624 13.8552H10.4255V16.0071H12.5624V13.8552Z" fill="#30303A"/>
<path d="M12.5624 7.42761H10.4255V9.57951H12.5624V7.42761Z" fill="#30303A"/>
<path d="M8.27454 3.13783V5.28973H12.5622V7.42756H14.7131V3.13783H21.1377V1H12.5622V3.13783H8.27454Z" fill="#30303A"/>
<path d="M10.4254 16.007H8.27454V18.1449H10.4254V16.007Z" fill="#30303A"/>
<path d="M8.27464 24.5724H6.13782V26.7243H8.27464V24.5724Z" fill="#30303A"/>
<path d="M8.27464 13.8552H6.13782V16.0071H8.27464V13.8552Z" fill="#30303A"/>
<path d="M8.27464 5.28973H6.13782V7.42757H8.27464V5.28973Z" fill="#30303A"/>
<path d="M6.13792 20.2827H4.0011V24.5724H6.13792V20.2827Z" fill="#30303A"/>
<path d="M4.00098 13.8552H6.13781V7.42761H4.00098V11.7173H1.8501V20.2827H4.00098V13.8552Z" fill="#30303A"/>
</svg>
