<svg width="33" height="32" viewBox="0 0 33 32" fill="none" xmlns="http://www.w3.org/2000/svg">
<g clip-path="url(#clip0_324_2153)">
<path d="M32.8496 28.9551H0.849609V30.4751H32.8496V28.9551Z" fill="#6969EA"/>
<path d="M25.2292 1.52539V3.04539H23.6992V25.9054H25.2292V27.4254H29.7992V25.9054H31.3192V3.04539H29.7992V1.52539H25.2292Z" fill="#6969EA"/>
<path d="M17.6098 22.8555H16.0898V24.3755H17.6098V22.8555Z" fill="#6969EA"/>
<path d="M17.6098 18.2852H16.0898V19.8052H17.6098V18.2852Z" fill="#6969EA"/>
<path d="M17.6098 13.7148H16.0898V15.2348H17.6098V13.7148Z" fill="#6969EA"/>
<path d="M17.6098 9.14453H16.0898V10.6645H17.6098V9.14453Z" fill="#6969EA"/>
<path d="M17.6096 9.1457H19.1296V12.1857H17.6096V13.7157H19.1296V16.7657H17.6096V18.2857H19.1296V21.3357H17.6096V22.8557H19.1296V25.9057H20.6596V7.6157H19.1296V6.0957H14.5596V7.6157H17.6096V9.1457Z" fill="#6969EA"/>
<path d="M19.13 27.4252V25.9052H16.09V24.3752H14.56V21.3352H16.09V19.8052H14.56V16.7652H16.09V15.2352H14.56V12.1852H16.09V10.6652H14.56V7.61523H13.04V25.9052H14.56V27.4252H19.13Z" fill="#6969EA"/>
<path d="M9.98973 16.7656H8.46973V25.9056H9.98973V16.7656Z" fill="#6969EA"/>
<path d="M8.46941 25.9062H3.89941V27.4262H8.46941V25.9062Z" fill="#6969EA"/>
<path d="M8.46941 15.2363H3.89941V16.7663H8.46941V15.2363Z" fill="#6969EA"/>
<path d="M3.89914 16.7656H2.36914V25.9056H3.89914V16.7656Z" fill="#6969EA"/>
</g>
<defs>
<clipPath id="clip0_324_2153">
<rect width="32" height="32" fill="white" transform="translate(0.849609)"/>
</clipPath>
</defs>
</svg>
