<svg width="32" height="32" viewBox="0 0 32 32" fill="none" xmlns="http://www.w3.org/2000/svg">
<g clip-path="url(#clip0_2345_1577)">
<path d="M30.4799 25.9001H28.95V27.4301H32V21.3301H30.4799V25.9001Z" fill="#30303A"/>
<path d="M28.95 4.56995V6.08995H30.4799V10.6699H32V4.56995H28.95Z" fill="#30303A"/>
<path d="M30.4799 19.8101H28.95V21.3301H30.4799V19.8101Z" fill="#30303A"/>
<path d="M30.4799 10.67H28.95V12.19H30.4799V10.67Z" fill="#30303A"/>
<path d="M28.9501 24.3799H27.4301V25.8999H28.9501V24.3799Z" fill="#30303A"/>
<path d="M28.9501 6.08997H27.4301V7.61997H28.9501V6.08997Z" fill="#30303A"/>
<path d="M22.86 22.8601V27.4301H24.38V28.9501H25.91V30.4801H21.34V32.0001H28.95V28.9501H27.43V27.4301H25.91V24.3801H27.43V22.8601H22.86Z" fill="#30303A"/>
<path d="M28.95 12.1899H22.86V13.7099H28.95V12.1899Z" fill="#30303A"/>
<path d="M25.91 3.05005H24.38V4.57005H25.91V3.05005Z" fill="#30303A"/>
<path d="M22.86 9.13995H27.43V7.61995H24.38V4.56995H22.86V9.13995Z" fill="#30303A"/>
<path d="M25.91 1.52V3.05H27.43V0H21.34V1.52H25.91Z" fill="#30303A"/>
<path d="M21.3401 28.95H19.8101V30.4799H21.3401V28.95Z" fill="#30303A"/>
<path d="M21.3401 19.8101H19.8101V21.3301H21.3401V19.8101Z" fill="#30303A"/>
<path d="M19.8099 12.19H18.2899V9.14H15.2399V3.05H13.7199V1.52H12.1899V0H4.56995V3.05H6.09995V1.52H10.6699V3.05H12.1899V9.14H13.7199V10.67H15.2399V12.19H16.7599V13.71H18.2899V15.24H19.8099V16.76H21.3399V18.28H22.8599V19.81H28.9499V18.28H24.3799V16.76H22.8599V13.71H19.8099V12.19Z" fill="#30303A"/>
<path d="M21.3401 1.52002H19.8101V3.05002H21.3401V1.52002Z" fill="#30303A"/>
<path d="M19.81 22.8601H18.29V28.9501H19.81V22.8601Z" fill="#30303A"/>
<path d="M19.81 18.28H18.29V19.81H19.81V18.28Z" fill="#30303A"/>
<path d="M19.81 3.05005H18.29V9.14005H19.81V3.05005Z" fill="#30303A"/>
<path d="M18.29 21.3301H16.76V22.8601H18.29V21.3301Z" fill="#30303A"/>
<path d="M18.29 16.76H16.76V18.28H18.29V16.76Z" fill="#30303A"/>
<path d="M16.76 19.8101H15.24V21.3301H16.76V19.8101Z" fill="#30303A"/>
<path d="M16.76 15.24H15.24V16.76H16.76V15.24Z" fill="#30303A"/>
<path d="M15.24 21.3301H13.72V22.8601H15.24V21.3301Z" fill="#30303A"/>
<path d="M15.24 18.28H13.72V19.81H15.24V18.28Z" fill="#30303A"/>
<path d="M15.24 13.71H13.72V15.24H15.24V13.71Z" fill="#30303A"/>
<path d="M13.7199 22.8601H12.1899V28.9501H13.7199V22.8601Z" fill="#30303A"/>
<path d="M13.7199 16.76H12.1899V18.28H13.7199V16.76Z" fill="#30303A"/>
<path d="M13.7199 12.1899H12.1899V13.7099H13.7199V12.1899Z" fill="#30303A"/>
<path d="M12.19 28.95H10.67V30.4799H12.19V28.95Z" fill="#30303A"/>
<path d="M12.19 15.24H10.67V16.76H12.19V15.24Z" fill="#30303A"/>
<path d="M12.19 10.67H10.67V12.19H12.19V10.67Z" fill="#30303A"/>
<path d="M10.67 16.76H9.15002V18.28H10.67V16.76Z" fill="#30303A"/>
<path d="M10.67 13.71H9.15002V15.24H10.67V13.71Z" fill="#30303A"/>
<path d="M6.09995 30.4799V28.95H4.56995V32H10.6699V30.4799H6.09995Z" fill="#30303A"/>
<path d="M9.14995 22.8601H4.56995V24.3801H7.61995V27.4301H9.14995V22.8601Z" fill="#30303A"/>
<path d="M9.15005 12.1899H3.05005V13.7099H9.15005V12.1899Z" fill="#30303A"/>
<path d="M7.61998 27.4299H6.09998V28.9499H7.61998V27.4299Z" fill="#30303A"/>
<path d="M7.61998 3.05005H6.09998V4.57005H7.61998V3.05005Z" fill="#30303A"/>
<path d="M9.15005 18.28H3.05005V19.81H9.15005V18.28Z" fill="#30303A"/>
<path d="M9.14995 9.13995V4.56995H7.61995V7.61995H4.56995V9.13995H9.14995Z" fill="#30303A"/>
<path d="M4.57005 24.3799H3.05005V25.8999H4.57005V24.3799Z" fill="#30303A"/>
<path d="M4.57005 6.08997H3.05005V7.61997H4.57005V6.08997Z" fill="#30303A"/>
<path d="M3.05003 19.8101H1.53003V21.3301H3.05003V19.8101Z" fill="#30303A"/>
<path d="M3.05003 10.67H1.53003V12.19H3.05003V10.67Z" fill="#30303A"/>
<path d="M1.53 21.3301H0V27.4301H3.05V25.9001H1.53V21.3301Z" fill="#30303A"/>
<path d="M1.53 6.08995H3.05V4.56995H0V10.6699H1.53V6.08995Z" fill="#30303A"/>
</g>
<defs>
<clipPath id="clip0_2345_1577">
<rect width="32" height="32" fill="white"/>
</clipPath>
</defs>
</svg>
