<svg width="32" height="32" viewBox="0 0 32 32" fill="none" xmlns="http://www.w3.org/2000/svg">
<g clip-path="url(#clip0_325_2193)">
<path d="M31.24 8.37891H29.71V9.89891H31.24V8.37891Z" fill="#EAD569"/>
<path d="M29.7095 9.90039H28.1895V11.4304H29.7095V9.90039Z" fill="#EAD569"/>
<path d="M29.7095 6.85938H28.1895V8.37937H29.7095V6.85938Z" fill="#EAD569"/>
<path d="M28.1899 8.37891H26.6699V9.89891H28.1899V8.37891Z" fill="#EAD569"/>
<path d="M26.6701 28.1891V26.6591H28.1901V25.1391H26.6701V23.6191H25.1401V25.1391H23.6201V26.6591H25.1401V28.1891H26.6701Z" fill="#EAD569"/>
<path d="M26.6696 12.9492H25.1396V15.9992H26.6696V12.9492Z" fill="#EAD569"/>
<path d="M25.1401 16H23.6201V17.52H25.1401V16Z" fill="#EAD569"/>
<path d="M25.1401 3.81055H23.6201V5.33055H25.1401V3.81055Z" fill="#EAD569"/>
<path d="M23.6198 17.5195H22.0898V19.0495H23.6198V17.5195Z" fill="#EAD569"/>
<path d="M23.6198 5.33008H22.0898V6.86008H23.6198V5.33008Z" fill="#EAD569"/>
<path d="M22.0893 19.0488H20.5693V20.5688H22.0893V19.0488Z" fill="#EAD569"/>
<path d="M22.0893 6.85938H20.5693V8.37937H22.0893V6.85938Z" fill="#EAD569"/>
<path d="M20.5698 20.5703H19.0498V22.0903H20.5698V20.5703Z" fill="#EAD569"/>
<path d="M20.5698 8.37891H19.0498V9.89891H20.5698V8.37891Z" fill="#EAD569"/>
<path d="M19.0495 29.709H17.5195V31.239H19.0495V29.709Z" fill="#EAD569"/>
<path d="M19.0495 22.0898H17.5195V23.6198H19.0495V22.0898Z" fill="#EAD569"/>
<path d="M17.52 9.90039V11.4304H16V12.9504H25.14V11.4304H19.05V9.90039H17.52Z" fill="#EAD569"/>
<path d="M17.52 23.6191H16V25.1391H17.52V23.6191Z" fill="#EAD569"/>
<path d="M25.1395 2.27977V3.80977H26.6695V0.759766H14.4795V2.27977H25.1395Z" fill="#EAD569"/>
<path d="M15.9995 25.1406H14.4795V26.6606H15.9995V25.1406Z" fill="#EAD569"/>
<path d="M14.4802 26.6602H12.9502V28.1902H14.4802V26.6602Z" fill="#EAD569"/>
<path d="M14.4802 2.2793H12.9502V3.8093H14.4802V2.2793Z" fill="#EAD569"/>
<path d="M12.9497 28.1895H11.4297V29.7095H12.9497V28.1895Z" fill="#EAD569"/>
<path d="M12.9496 16H3.80957V17.52H11.4296V20.57H12.9496V16Z" fill="#EAD569"/>
<path d="M12.9497 3.81055H11.4297V5.33055H12.9497V3.81055Z" fill="#EAD569"/>
<path d="M11.4294 29.709H9.89941V31.239H11.4294V29.709Z" fill="#EAD569"/>
<path d="M11.4294 20.5703H9.89941V25.1403H11.4294V20.5703Z" fill="#EAD569"/>
<path d="M11.4294 5.33008H9.89941V6.86008H11.4294V5.33008Z" fill="#EAD569"/>
<path d="M9.89988 25.1406H8.37988V29.7106H9.89988V25.1406Z" fill="#EAD569"/>
<path d="M9.89988 6.85938H8.37988V8.37937H9.89988V6.85938Z" fill="#EAD569"/>
<path d="M8.37937 8.37891H6.85938V9.89891H8.37937V8.37891Z" fill="#EAD569"/>
<path d="M6.86008 9.90039H5.33008V11.4304H6.86008V9.90039Z" fill="#EAD569"/>
<path d="M5.32957 22.0898H3.80957V23.6198H5.32957V22.0898Z" fill="#EAD569"/>
<path d="M5.32957 11.4297H3.80957V12.9497H5.32957V11.4297Z" fill="#EAD569"/>
<path d="M3.81004 0.759766V2.27977H2.29004V3.80977H3.81004V5.32977H5.33004V3.80977H6.86004V2.27977H5.33004V0.759766H3.81004Z" fill="#EAD569"/>
<path d="M3.81004 23.6191H2.29004V25.1391H3.81004V23.6191Z" fill="#EAD569"/>
<path d="M3.81004 20.5703H2.29004V22.0903H3.81004V20.5703Z" fill="#EAD569"/>
<path d="M3.81004 12.9492H2.29004V15.9992H3.81004V12.9492Z" fill="#EAD569"/>
<path d="M2.28977 22.0898H0.759766V23.6198H2.28977V22.0898Z" fill="#EAD569"/>
</g>
<defs>
<clipPath id="clip0_325_2193">
<rect width="32" height="32" fill="white"/>
</clipPath>
</defs>
</svg>
