<svg width="33" height="32" viewBox="0 0 33 32" fill="none" xmlns="http://www.w3.org/2000/svg">
<g clip-path="url(#clip0_1128_11678)">
<path d="M32.8501 19.045H31.3201V25.135H32.8501V19.045Z" fill="#30303A"/>
<path d="M31.32 25.135H29.8V26.665H31.32V25.135Z" fill="#30303A"/>
<path d="M28.2802 15.995V17.525H29.8002V19.045H31.3202V12.945H29.8002V15.995H28.2802Z" fill="#30303A"/>
<path d="M29.8002 26.665H28.2802V28.185H29.8002V26.665Z" fill="#30303A"/>
<path d="M29.8002 8.375H28.2802V12.945H29.8002V8.375Z" fill="#30303A"/>
<path d="M28.2802 17.525H22.1802V19.045H26.7502V20.565H25.2302V22.095H23.7002V23.615H22.1802V19.045H20.6602V25.135H22.1802V26.665H28.2802V25.135H29.8002V19.045H28.2802V17.525Z" fill="#30303A"/>
<path d="M28.2801 3.80501H26.7501V8.37501H28.2801V3.80501Z" fill="#30303A"/>
<path d="M28.2801 28.185H22.1801V29.715H28.2801V28.185Z" fill="#30303A"/>
<path d="M28.2801 14.475H22.1801V15.995H28.2801V14.475Z" fill="#30303A"/>
<path d="M22.1802 26.665H20.6602V28.185H22.1802V26.665Z" fill="#30303A"/>
<path d="M22.1802 15.995H20.6602V17.525H22.1802V15.995Z" fill="#30303A"/>
<path d="M26.7501 2.285H19.1301V3.805H26.7501V2.285Z" fill="#30303A"/>
<path d="M20.6601 25.135H19.1301V26.665H20.6601V25.135Z" fill="#30303A"/>
<path d="M19.1301 19.045H20.6601V17.525H17.6101V25.135H19.1301V19.045Z" fill="#30303A"/>
<path d="M20.66 11.425H19.13V9.905H14.56V11.425H13.04V12.945H14.56V14.475H19.13V12.945H20.66V11.425Z" fill="#30303A"/>
<path d="M17.6101 15.995H16.0901V17.525H17.6101V15.995Z" fill="#30303A"/>
<path d="M14.5601 8.37501H19.1301V3.80501H17.6101V6.85501H16.0901V3.80501H14.5601V8.37501Z" fill="#30303A"/>
<path d="M14.56 25.135H13.04V26.665H14.56V25.135Z" fill="#30303A"/>
<path d="M13.04 19.045H14.56V25.135H16.09V17.525H13.04V19.045Z" fill="#30303A"/>
<path d="M13.0401 26.665H11.5101V28.185H13.0401V26.665Z" fill="#30303A"/>
<path d="M13.0401 15.995H11.5101V17.525H13.0401V15.995Z" fill="#30303A"/>
<path d="M11.5101 17.525H5.42015V19.045H9.99015V20.565H8.47015V22.095H6.94015V23.615H5.42015V19.045H3.90015V25.135H5.42015V26.665H11.5101V25.135H13.0401V19.045H11.5101V17.525Z" fill="#30303A"/>
<path d="M11.51 28.185H5.42004V29.715H11.51V28.185Z" fill="#30303A"/>
<path d="M14.5601 2.285H6.94006V3.805H14.5601V2.285Z" fill="#30303A"/>
<path d="M11.51 14.475H5.42004V15.995H11.51V14.475Z" fill="#30303A"/>
<path d="M6.94004 3.80501H5.42004V8.37501H6.94004V3.80501Z" fill="#30303A"/>
<path d="M5.42015 26.665H3.90015V28.185H5.42015V26.665Z" fill="#30303A"/>
<path d="M5.42015 8.375H3.90015V12.945H5.42015V8.375Z" fill="#30303A"/>
<path d="M3.90012 25.135H2.37012V26.665H3.90012V25.135Z" fill="#30303A"/>
<path d="M3.90012 17.525H5.42012V15.995H3.90012V12.945H2.37012V19.045H3.90012V17.525Z" fill="#30303A"/>
<path d="M2.3701 19.045H0.850098V25.135H2.3701V19.045Z" fill="#30303A"/>
</g>
<defs>
<clipPath id="clip0_1128_11678">
<rect width="32" height="32" fill="white" transform="translate(0.850098)"/>
</clipPath>
</defs>
</svg>
