<svg width="32" height="32" viewBox="0 0 32 32" fill="none" xmlns="http://www.w3.org/2000/svg">
<g clip-path="url(#clip0_2333_1488)">
<path d="M2.28501 10.67H29.715V30.48H31.235V6.09998H29.715V9.13998H2.28501V6.09998H0.765015V30.48H2.28501V10.67Z" fill="#30303A"/>
<path d="M29.7151 4.57001H28.1951V6.10001H29.7151V4.57001Z" fill="#30303A"/>
<path d="M29.715 30.48H2.28503V32H29.715V30.48Z" fill="#30303A"/>
<path d="M25.145 18.29H22.095V19.81H20.575V18.29H17.525V19.81H16.005V22.86H17.525V24.38H19.045V25.9H20.575V27.43H22.095V25.9H23.615V24.38H25.145V22.86H26.665V19.81H25.145V18.29Z" fill="#30303A"/>
<path d="M25.145 13.71H23.615V15.24H25.145V13.71Z" fill="#30303A"/>
<path d="M19.045 13.71H17.525V15.24H19.045V13.71Z" fill="#30303A"/>
<path d="M12.955 25.9H11.425V27.43H12.955V25.9Z" fill="#30303A"/>
<path d="M12.955 19.81H11.425V21.33H12.955V19.81Z" fill="#30303A"/>
<path d="M12.955 13.71H11.425V15.24H12.955V13.71Z" fill="#30303A"/>
<path d="M6.85496 25.9H5.33496V27.43H6.85496V25.9Z" fill="#30303A"/>
<path d="M6.85496 19.81H5.33496V21.33H6.85496V19.81Z" fill="#30303A"/>
<path d="M6.85496 13.71H5.33496V15.24H6.85496V13.71Z" fill="#30303A"/>
<path d="M8.38506 4.57V6.1H9.90506V4.57H22.0951V6.1H23.6151V4.57H28.1951V3.05H23.6151V0H22.0951V3.05H9.90506V0H8.38506V3.05H3.81506V4.57H8.38506Z" fill="#30303A"/>
<path d="M3.81503 4.57001H2.28503V6.10001H3.81503V4.57001Z" fill="#30303A"/>
</g>
<defs>
<clipPath id="clip0_2333_1488">
<rect width="32" height="32" fill="white"/>
</clipPath>
</defs>
</svg>
