<svg width="20" height="20" viewBox="0 0 20 20" fill="none" xmlns="http://www.w3.org/2000/svg">
<path d="M18.5743 14.2886H1.43456V15.7138H0V18.5735H1.43456V17.1483H18.5743V18.5735H20.0089V15.7138H18.5743V14.2886Z" fill="#30303A"/>
<path d="M18.5743 7.146H1.43456V8.57118H0V11.4309H1.43456V10.0057H18.5743V11.4309H20.0089V8.57118H18.5743V7.146Z" fill="#30303A"/>
<path d="M18.5743 0H1.43456V1.42519H0V4.28494H1.43456V2.85975H18.5743V4.28494H20.0089V1.42519H18.5743V0Z" fill="#30303A"/>
<path d="M18.5851 18.5747H1.44531V19.9999H18.5851V18.5747Z" fill="#30303A"/>
<path d="M18.5851 11.4292H1.44531V12.8544H18.5851V11.4292Z" fill="#30303A"/>
<path d="M18.5851 4.28418H1.44531V5.71874H18.5851V4.28418Z" fill="#30303A"/>
</svg>
