<svg width="32" height="32" viewBox="0 0 32 32" fill="none" xmlns="http://www.w3.org/2000/svg">
<g clip-path="url(#clip0_211_697)">
<path d="M32.0005 28.9502H30.4805V32.0002H32.0005V28.9502Z" fill="#30303A"/>
<path d="M32.0005 10.6699H30.4805V12.1899H32.0005V10.6699Z" fill="#30303A"/>
<path d="M30.4809 25.9102H28.9609V28.9502H30.4809V25.9102Z" fill="#30303A"/>
<path d="M30.4809 9.13965H28.9609V10.6696H30.4809V9.13965Z" fill="#30303A"/>
<path d="M28.9597 22.8604H27.4297V25.9104H28.9597V22.8604Z" fill="#30303A"/>
<path d="M30.4802 12.1904H25.9102V13.7204H30.4802V12.1904Z" fill="#30303A"/>
<path d="M28.9597 7.62012H27.4297V9.14012H28.9597V7.62012Z" fill="#30303A"/>
<path d="M25.9119 19.81V16.76H24.3919V13.72H22.8619V10.67H21.3419V9.14H19.8119V6.1H25.9119V4.57H24.3919V3.05H22.8619V4.57H19.8119V1.53H21.3419V0H18.2919V9.14H16.7719V10.67H15.2419V13.72H13.7219V16.76H12.1919V19.81H10.6719V22.86H13.7219V24.38H18.2919V22.86H22.8619V21.34H25.9119V22.86H27.4319V19.81H25.9119ZM16.7719 22.86H15.2419V21.34H16.7719V22.86ZM21.3419 21.34H19.8119V19.81H18.2919V18.29H19.8119V19.81H21.3419V21.34ZM21.3419 15.24H19.8119V12.19H18.2919V10.67H19.8119V12.19H21.3419V15.24ZM24.3919 19.81H22.8619V18.29H24.3919V19.81Z" fill="#30303A"/>
<path d="M27.4302 9.13965H25.9102V10.6696H27.4302V9.13965Z" fill="#30303A"/>
<path d="M25.9106 10.6699H24.3906V12.1899H25.9106V10.6699Z" fill="#30303A"/>
<path d="M22.8598 1.53027H21.3398V3.05027H22.8598V1.53027Z" fill="#30303A"/>
<path d="M10.6684 22.8604H9.14844V25.9104H10.6684V22.8604Z" fill="#30303A"/>
<path d="M10.6684 6.09961H9.14844V7.61961H10.6684V6.09961Z" fill="#30303A"/>
<path d="M9.15109 25.9102H7.62109V28.9502H9.15109V25.9102Z" fill="#30303A"/>
<path d="M9.15109 4.57031H7.62109V6.10031H9.15109V4.57031Z" fill="#30303A"/>
<path d="M7.62156 28.9502H6.10156V32.0002H7.62156V28.9502Z" fill="#30303A"/>
<path d="M7.62156 24.3799H6.10156V25.9099H7.62156V24.3799Z" fill="#30303A"/>
<path d="M9.15125 7.62012H1.53125V9.14012H9.15125V7.62012Z" fill="#30303A"/>
<path d="M7.61812 3.0498H4.57812V4.5698H7.61812V3.0498Z" fill="#30303A"/>
<path d="M6.09812 22.8604H4.57812V24.3804H6.09812V22.8604Z" fill="#30303A"/>
<path d="M4.58078 24.3799H3.05078V25.9099H4.58078V24.3799Z" fill="#30303A"/>
<path d="M4.58125 4.57031H1.53125V6.10031H4.58125V4.57031Z" fill="#30303A"/>
<path d="M3.05125 25.9102H1.53125V28.9502H3.05125V25.9102Z" fill="#30303A"/>
<path d="M1.53 28.9502H0V32.0002H1.53V28.9502Z" fill="#30303A"/>
<path d="M1.53 6.09961H0V7.61961H1.53V6.09961Z" fill="#30303A"/>
</g>
<defs>
<clipPath id="clip0_211_697">
<rect width="32" height="32" fill="white"/>
</clipPath>
</defs>
</svg>
