<svg width="32" height="32" viewBox="0 0 32 32" fill="none" xmlns="http://www.w3.org/2000/svg">
<path d="M30.4734 22.8601H25.9034V21.3301H27.4234V19.8101H4.57344V21.3301H6.09844V22.8601H1.52344V32.0001H30.4734V22.8601ZM7.61344 21.3301H24.3734V22.8601H7.61344V21.3301ZM28.9534 30.4801H3.04344V24.3801H28.9534V30.4801Z" fill="#30303A"/>
<path d="M28.9519 1.52002H27.4219V19.81H28.9519V1.52002Z" fill="#30303A"/>
<path d="M25.9052 25.8999H18.2852V27.4299H25.9052V25.8999Z" fill="#30303A"/>
<path d="M19.8052 10.6699H18.2852V12.1899H19.8052V10.6699Z" fill="#30303A"/>
<path d="M19.8052 7.62012H18.2852V9.14012H19.8052V7.62012Z" fill="#30303A"/>
<path d="M18.2848 12.1899H13.7148V13.7099H18.2848V12.1899Z" fill="#30303A"/>
<path d="M13.7136 10.6699H12.1836V12.1899H13.7136V10.6699Z" fill="#30303A"/>
<path d="M13.7136 7.62012H12.1836V9.14012H13.7136V7.62012Z" fill="#30303A"/>
<path d="M6.09766 18.2898H25.9077V3.0498H6.09766V18.2898ZM7.61266 4.5698H24.3727V16.7598H7.61266V4.5698Z" fill="#30303A"/>
<path d="M9.14375 25.8999H6.09375V28.9499H9.14375V25.8999Z" fill="#30303A"/>
<path d="M27.4242 0H4.57422V1.52H27.4242V0Z" fill="#30303A"/>
<path d="M4.57297 1.52002H3.04297V19.81H4.57297V1.52002Z" fill="#30303A"/>
</svg>
