<svg width="33" height="32" viewBox="0 0 33 32" fill="none" xmlns="http://www.w3.org/2000/svg">
<g clip-path="url(#clip0_1128_4191)">
<path d="M32.6454 28.95H29.5954V30.48H32.6454V28.95Z" fill="#30303A"/>
<path d="M29.5954 30.48H28.0754V32H29.5954V30.48Z" fill="#30303A"/>
<path d="M28.0754 19.81H26.5454V21.33H28.0754V22.86H29.5954V15.24H28.0754V19.81Z" fill="#30303A"/>
<path d="M28.0754 28.95H25.0254V30.48H28.0754V28.95Z" fill="#30303A"/>
<path d="M28.0754 13.72H26.5454V15.24H28.0754V13.72Z" fill="#30303A"/>
<path d="M25.0254 27.43H21.9754V28.95H25.0254V27.43Z" fill="#30303A"/>
<path d="M23.5054 21.33H25.0254V19.81H26.5454V18.29H25.0254V13.72H26.5454V12.19H25.0254V7.62H23.5054V21.33Z" fill="#30303A"/>
<path d="M21.9754 30.48H20.4554V32H21.9754V30.48Z" fill="#30303A"/>
<path d="M21.9754 18.29H20.4554V19.81H21.9754V18.29Z" fill="#30303A"/>
<path d="M21.9754 15.24H20.4554V16.76H21.9754V15.24Z" fill="#30303A"/>
<path d="M20.4554 27.43H18.9254V30.48H20.4554V27.43Z" fill="#30303A"/>
<path d="M20.4554 24.38H14.3554V25.91H20.4554V24.38Z" fill="#30303A"/>
<path d="M20.4554 1.51999H18.9254V3.04999H20.4554V1.51999Z" fill="#30303A"/>
<path d="M18.9254 0H15.8854V1.52H18.9254V0Z" fill="#30303A"/>
<path d="M20.4554 9.14H18.9254V7.62H15.8854V9.14H17.4054V10.67H15.8854V9.14H14.3554V12.19H15.8854V13.72H18.9254V12.19H20.4554V9.14Z" fill="#30303A"/>
<path d="M15.8854 27.43H14.3554V30.48H15.8854V27.43Z" fill="#30303A"/>
<path d="M11.3054 22.86H12.8354V24.38H14.3554V22.86H20.4554V24.38H21.9754V22.86H23.5054V21.33H11.3054V22.86Z" fill="#30303A"/>
<path d="M15.8854 1.51999H14.3554V3.04999H15.8854V1.51999Z" fill="#30303A"/>
<path d="M14.3554 30.48H12.8354V32H14.3554V30.48Z" fill="#30303A"/>
<path d="M12.8354 27.43H9.7854V28.95H12.8354V27.43Z" fill="#30303A"/>
<path d="M14.3554 4.56999V3.04999H12.8354V4.56999H11.3054V7.61999H12.8354V6.09999H21.9754V7.61999H23.5054V4.56999H21.9754V3.04999H20.4554V4.56999H14.3554Z" fill="#30303A"/>
<path d="M11.3054 7.62H9.78538V12.19H8.26538V13.72H9.78538V18.29H8.26538V19.81H9.78538V21.33H11.3054V7.62Z" fill="#30303A"/>
<path d="M9.78538 28.95H6.73538V30.48H9.78538V28.95Z" fill="#30303A"/>
<path d="M8.26538 13.72H6.73538V15.24H8.26538V13.72Z" fill="#30303A"/>
<path d="M6.73539 30.48H5.21539V32H6.73539V30.48Z" fill="#30303A"/>
<path d="M6.73539 15.24H5.21539V22.86H6.73539V21.33H8.26539V19.81H6.73539V15.24Z" fill="#30303A"/>
<path d="M5.21537 28.95H2.16537V30.48H5.21537V28.95Z" fill="#30303A"/>
<path d="M2.16539 30.48H0.645386V32H2.16539V30.48Z" fill="#30303A"/>
</g>
<defs>
<clipPath id="clip0_1128_4191">
<rect width="32" height="32" fill="white" transform="translate(0.645386)"/>
</clipPath>
</defs>
</svg>
