<svg width="3867" height="1922" viewBox="0 0 3867 1922" fill="none" xmlns="http://www.w3.org/2000/svg">
<path opacity="0.12" d="M3854.04 280.149L12.9646 280.149M3854.04 552.489L12.9646 552.489M3854.04 824.83L12.9645 824.83M3854.04 1097.17L12.9645 1097.17M3854.04 1369.51L12.9645 1369.51M3854.04 1641.85L12.9645 1641.85M3147.7 1921L3147.7 1.00003M2669.11 1921L2669.11 0.999995M2190.53 1921L2190.53 0.999962M1711.94 1921L1711.94 0.99993M1233.36 1921L1233.36 0.999897M754.771 1921L754.771 0.999864M0.999859 20.9999L0.999777 1901C0.999777 1912.05 9.95405 1921 20.9997 1921L3846 1921C3857.05 1921 3866 1912.05 3866 1901L3866 21.0001C3866 9.95437 3857.05 1.00006 3846 1.00006L20.9999 0.999891C9.95416 0.999891 0.99986 9.95423 0.999859 20.9999Z" stroke="#9191F2" stroke-width="2"/>
</svg>
